<?xml version="1.0" encoding="UTF-8" standalone="no"?>
<!DOCTYPE svg PUBLIC "-//W3C//DTD SVG 1.1//EN"
 "http://www.w3.org/Graphics/SVG/1.1/DTD/svg11.dtd">
<!-- Generated by graphviz version 2.38.0 (20140413.2041)
 -->
<!-- Title: G Pages: 1 -->
<svg width="638pt" height="2250pt"
 viewBox="0.00 0.00 638.18 2250.00" xmlns="http://www.w3.org/2000/svg" xmlns:xlink="http://www.w3.org/1999/xlink">
<g id="graph0" class="graph" transform="scale(1 1) rotate(0) translate(4 2246)">
<title>G</title>
<polygon fill="white" stroke="none" points="-4,4 -4,-2246 634.178,-2246 634.178,4 -4,4"/>
<g id="clust1" class="cluster"><title>cluster_Global</title>
<path fill="none" stroke="gray" d="M20,-8C20,-8 610.178,-8 610.178,-8 616.178,-8 622.178,-14 622.178,-20 622.178,-20 622.178,-2222 622.178,-2222 622.178,-2228 616.178,-2234 610.178,-2234 610.178,-2234 20,-2234 20,-2234 14,-2234 8,-2228 8,-2222 8,-2222 8,-20 8,-20 8,-14 14,-8 20,-8"/>
<text text-anchor="middle" x="315.089" y="-2221.2" font-family="Times New Roman,serif" font-size="11.00" fill="gray">Global</text>
</g>
<g id="clust2" class="cluster"><title>cluster_\Rdb</title>
<path fill="none" stroke="gray" d="M219.334,-16C219.334,-16 602.178,-16 602.178,-16 608.178,-16 614.178,-22 614.178,-28 614.178,-28 614.178,-1838 614.178,-1838 614.178,-1844 608.178,-1850 602.178,-1850 602.178,-1850 219.334,-1850 219.334,-1850 213.334,-1850 207.334,-1844 207.334,-1838 207.334,-1838 207.334,-28 207.334,-28 207.334,-22 213.334,-16 219.334,-16"/>
<text text-anchor="middle" x="410.756" y="-1837.2" font-family="Times New Roman,serif" font-size="11.00" fill="gray">Rdb</text>
</g>
<g id="clust3" class="cluster"><title>cluster_\Rdb\System</title>
<path fill="none" stroke="gray" d="M227.334,-24C227.334,-24 594.178,-24 594.178,-24 600.178,-24 606.178,-30 606.178,-36 606.178,-36 606.178,-1810 606.178,-1810 606.178,-1816 600.178,-1822 594.178,-1822 594.178,-1822 227.334,-1822 227.334,-1822 221.334,-1822 215.334,-1816 215.334,-1810 215.334,-1810 215.334,-36 215.334,-36 215.334,-30 221.334,-24 227.334,-24"/>
<text text-anchor="middle" x="410.756" y="-1809.2" font-family="Times New Roman,serif" font-size="11.00" fill="gray">System</text>
</g>
<g id="clust4" class="cluster"><title>cluster_\Rdb\System\Libraries</title>
<path fill="none" stroke="gray" d="M474.178,-1218C474.178,-1218 559.178,-1218 559.178,-1218 565.178,-1218 571.178,-1224 571.178,-1230 571.178,-1230 571.178,-1782 571.178,-1782 571.178,-1788 565.178,-1794 559.178,-1794 559.178,-1794 474.178,-1794 474.178,-1794 468.178,-1794 462.178,-1788 462.178,-1782 462.178,-1782 462.178,-1230 462.178,-1230 462.178,-1224 468.178,-1218 474.178,-1218"/>
<text text-anchor="middle" x="516.678" y="-1781.2" font-family="Times New Roman,serif" font-size="11.00" fill="gray">Libraries</text>
</g>
<g id="clust5" class="cluster"><title>cluster_\Rdb\System\Libraries\Db</title>
<path fill="none" stroke="gray" d="M482.178,-1488C482.178,-1488 551.178,-1488 551.178,-1488 557.178,-1488 563.178,-1494 563.178,-1500 563.178,-1500 563.178,-1602 563.178,-1602 563.178,-1608 557.178,-1614 551.178,-1614 551.178,-1614 482.178,-1614 482.178,-1614 476.178,-1614 470.178,-1608 470.178,-1602 470.178,-1602 470.178,-1500 470.178,-1500 470.178,-1494 476.178,-1488 482.178,-1488"/>
<text text-anchor="middle" x="516.678" y="-1601.2" font-family="Times New Roman,serif" font-size="11.00" fill="gray">Db</text>
</g>
<g id="clust6" class="cluster"><title>cluster_\Rdb\System\Core</title>
<path fill="none" stroke="gray" d="M235.334,-670C235.334,-670 586.178,-670 586.178,-670 592.178,-670 598.178,-676 598.178,-682 598.178,-682 598.178,-1198 598.178,-1198 598.178,-1204 592.178,-1210 586.178,-1210 586.178,-1210 235.334,-1210 235.334,-1210 229.334,-1210 223.334,-1204 223.334,-1198 223.334,-1198 223.334,-682 223.334,-682 223.334,-676 229.334,-670 235.334,-670"/>
<text text-anchor="middle" x="410.756" y="-1197.2" font-family="Times New Roman,serif" font-size="11.00" fill="gray">Core</text>
</g>
<g id="clust7" class="cluster"><title>cluster_\Rdb\System\Core\Console</title>
<path fill="none" stroke="gray" d="M253.334,-974C253.334,-974 547.678,-974 547.678,-974 553.678,-974 559.678,-980 559.678,-986 559.678,-986 559.678,-1170 559.678,-1170 559.678,-1176 553.678,-1182 547.678,-1182 547.678,-1182 253.334,-1182 253.334,-1182 247.334,-1182 241.334,-1176 241.334,-1170 241.334,-1170 241.334,-986 241.334,-986 241.334,-980 247.334,-974 253.334,-974"/>
<text text-anchor="middle" x="400.506" y="-1169.2" font-family="Times New Roman,serif" font-size="11.00" fill="gray">Console</text>
</g>
<g id="clust8" class="cluster"><title>cluster_\Rdb\System\Core\Console\Phinx</title>
<path fill="none" stroke="gray" d="M493.678,-1082C493.678,-1082 539.678,-1082 539.678,-1082 545.678,-1082 551.678,-1088 551.678,-1094 551.678,-1094 551.678,-1142 551.678,-1142 551.678,-1148 545.678,-1154 539.678,-1154 539.678,-1154 493.678,-1154 493.678,-1154 487.678,-1154 481.678,-1148 481.678,-1142 481.678,-1142 481.678,-1094 481.678,-1094 481.678,-1088 487.678,-1082 493.678,-1082"/>
<text text-anchor="middle" x="516.678" y="-1141.2" font-family="Times New Roman,serif" font-size="11.00" fill="gray">Phinx</text>
</g>
<g id="clust9" class="cluster"><title>cluster_\Rdb\System\Core\Controllers</title>
<path fill="none" stroke="gray" d="M243.334,-758C243.334,-758 578.178,-758 578.178,-758 584.178,-758 590.178,-764 590.178,-770 590.178,-770 590.178,-954 590.178,-954 590.178,-960 584.178,-966 578.178,-966 578.178,-966 243.334,-966 243.334,-966 237.334,-966 231.334,-960 231.334,-954 231.334,-954 231.334,-770 231.334,-770 231.334,-764 237.334,-758 243.334,-758"/>
<text text-anchor="middle" x="410.756" y="-953.2" font-family="Times New Roman,serif" font-size="11.00" fill="gray">Controllers</text>
</g>
<g id="clust10" class="cluster"><title>cluster_\Rdb\System\Core\Controllers\Error</title>
<path fill="none" stroke="gray" d="M465.178,-812C465.178,-812 568.178,-812 568.178,-812 574.178,-812 580.178,-818 580.178,-824 580.178,-824 580.178,-926 580.178,-926 580.178,-932 574.178,-938 568.178,-938 568.178,-938 465.178,-938 465.178,-938 459.178,-938 453.178,-932 453.178,-926 453.178,-926 453.178,-824 453.178,-824 453.178,-818 459.178,-812 465.178,-812"/>
<text text-anchor="middle" x="516.678" y="-925.2" font-family="Times New Roman,serif" font-size="11.00" fill="gray">Error</text>
</g>
<g id="clust11" class="cluster"><title>cluster_\Rdb\System\Core\Models</title>
<path fill="none" stroke="gray" d="M478.678,-678C478.678,-678 554.678,-678 554.678,-678 560.678,-678 566.678,-684 566.678,-690 566.678,-690 566.678,-738 566.678,-738 566.678,-744 560.678,-750 554.678,-750 554.678,-750 478.678,-750 478.678,-750 472.678,-750 466.678,-744 466.678,-738 466.678,-738 466.678,-690 466.678,-690 466.678,-684 472.678,-678 478.678,-678"/>
<text text-anchor="middle" x="516.678" y="-737.2" font-family="Times New Roman,serif" font-size="11.00" fill="gray">Models</text>
</g>
<g id="clust13" class="cluster"><title>cluster_\Rdb\System\Interfaces</title>
<path fill="none" stroke="gray" d="M461.678,-590C461.678,-590 571.678,-590 571.678,-590 577.678,-590 583.678,-596 583.678,-602 583.678,-602 583.678,-650 583.678,-650 583.678,-656 577.678,-662 571.678,-662 571.678,-662 461.678,-662 461.678,-662 455.678,-662 449.678,-656 449.678,-650 449.678,-650 449.678,-602 449.678,-602 449.678,-596 455.678,-590 461.678,-590"/>
<text text-anchor="middle" x="516.678" y="-649.2" font-family="Times New Roman,serif" font-size="11.00" fill="gray">Interfaces</text>
</g>
<g id="clust12" class="cluster"><title>cluster_\Rdb\System\Middleware</title>
<path fill="none" stroke="gray" d="M448.178,-402C448.178,-402 585.178,-402 585.178,-402 591.178,-402 597.178,-408 597.178,-414 597.178,-414 597.178,-570 597.178,-570 597.178,-576 591.178,-582 585.178,-582 585.178,-582 448.178,-582 448.178,-582 442.178,-582 436.178,-576 436.178,-570 436.178,-570 436.178,-414 436.178,-414 436.178,-408 442.178,-402 448.178,-402"/>
<text text-anchor="middle" x="516.678" y="-569.2" font-family="Times New Roman,serif" font-size="11.00" fill="gray">Middleware</text>
</g>
<g id="clust14" class="cluster"><title>cluster_Global\Symfony</title>
<path fill="none" stroke="gray" d="M28,-977C28,-977 165.491,-977 165.491,-977 171.491,-977 177.491,-983 177.491,-989 177.491,-989 177.491,-1145 177.491,-1145 177.491,-1151 171.491,-1157 165.491,-1157 165.491,-1157 28,-1157 28,-1157 22,-1157 16,-1151 16,-1145 16,-1145 16,-989 16,-989 16,-983 22,-977 28,-977"/>
<text text-anchor="middle" x="96.7457" y="-1144.2" font-family="Times New Roman,serif" font-size="11.00" fill="gray">Symfony</text>
</g>
<g id="clust15" class="cluster"><title>cluster_Global\Symfony\Component</title>
<path fill="none" stroke="gray" d="M36,-985C36,-985 157.491,-985 157.491,-985 163.491,-985 169.491,-991 169.491,-997 169.491,-997 169.491,-1117 169.491,-1117 169.491,-1123 163.491,-1129 157.491,-1129 157.491,-1129 36,-1129 36,-1129 30,-1129 24,-1123 24,-1117 24,-1117 24,-997 24,-997 24,-991 30,-985 36,-985"/>
<text text-anchor="middle" x="96.7457" y="-1116.2" font-family="Times New Roman,serif" font-size="11.00" fill="gray">Component</text>
</g>
<g id="clust16" class="cluster"><title>cluster_Global\Symfony\Component\Console</title>
<path fill="none" stroke="gray" d="M44,-993C44,-993 149.491,-993 149.491,-993 155.491,-993 161.491,-999 161.491,-1005 161.491,-1005 161.491,-1089 161.491,-1089 161.491,-1095 155.491,-1101 149.491,-1101 149.491,-1101 44,-1101 44,-1101 38,-1101 32,-1095 32,-1089 32,-1089 32,-1005 32,-1005 32,-999 38,-993 44,-993"/>
<text text-anchor="middle" x="96.7457" y="-1088.2" font-family="Times New Roman,serif" font-size="11.00" fill="gray">Console</text>
</g>
<g id="clust17" class="cluster"><title>cluster_Global\Symfony\Component\Console\Command</title>
<path fill="none" stroke="gray" d="M52,-1001C52,-1001 141.491,-1001 141.491,-1001 147.491,-1001 153.491,-1007 153.491,-1013 153.491,-1013 153.491,-1061 153.491,-1061 153.491,-1067 147.491,-1073 141.491,-1073 141.491,-1073 52,-1073 52,-1073 46,-1073 40,-1067 40,-1061 40,-1061 40,-1013 40,-1013 40,-1007 46,-1001 52,-1001"/>
<text text-anchor="middle" x="96.7457" y="-1060.2" font-family="Times New Roman,serif" font-size="11.00" fill="gray">Command</text>
</g>
<g id="clust20" class="cluster"><title>cluster_Global\Pimple</title>
<path fill="none" stroke="gray" d="M252.689,-2018C252.689,-2018 336.98,-2018 336.98,-2018 342.98,-2018 348.98,-2024 348.98,-2030 348.98,-2030 348.98,-2078 348.98,-2078 348.98,-2084 342.98,-2090 336.98,-2090 336.98,-2090 252.689,-2090 252.689,-2090 246.689,-2090 240.689,-2084 240.689,-2078 240.689,-2078 240.689,-2030 240.689,-2030 240.689,-2024 246.689,-2018 252.689,-2018"/>
<text text-anchor="middle" x="294.834" y="-2077.2" font-family="Times New Roman,serif" font-size="11.00" fill="gray">Pimple</text>
</g>
<g id="clust18" class="cluster"><title>cluster_Global\Rundiz</title>
<path fill="none" stroke="gray" d="M253.138,-1902C253.138,-1902 336.531,-1902 336.531,-1902 342.531,-1902 348.531,-1908 348.531,-1914 348.531,-1914 348.531,-1998 348.531,-1998 348.531,-2004 342.531,-2010 336.531,-2010 336.531,-2010 253.138,-2010 253.138,-2010 247.138,-2010 241.138,-2004 241.138,-1998 241.138,-1998 241.138,-1914 241.138,-1914 241.138,-1908 247.138,-1902 253.138,-1902"/>
<text text-anchor="middle" x="294.834" y="-1997.2" font-family="Times New Roman,serif" font-size="11.00" fill="gray">Rundiz</text>
</g>
<g id="clust19" class="cluster"><title>cluster_Global\Rundiz\Profiler</title>
<path fill="none" stroke="gray" d="M261.138,-1910C261.138,-1910 328.531,-1910 328.531,-1910 334.531,-1910 340.531,-1916 340.531,-1922 340.531,-1922 340.531,-1970 340.531,-1970 340.531,-1976 334.531,-1982 328.531,-1982 328.531,-1982 261.138,-1982 261.138,-1982 255.138,-1982 249.138,-1976 249.138,-1970 249.138,-1970 249.138,-1922 249.138,-1922 249.138,-1916 255.138,-1910 261.138,-1910"/>
<text text-anchor="middle" x="294.834" y="-1969.2" font-family="Times New Roman,serif" font-size="11.00" fill="gray">Profiler</text>
</g>
<g id="clust21" class="cluster"><title>cluster_Global\Psr</title>
<path fill="none" stroke="gray" d="M213.491,-2098C213.491,-2098 376.178,-2098 376.178,-2098 382.178,-2098 388.178,-2104 388.178,-2110 388.178,-2110 388.178,-2194 388.178,-2194 388.178,-2200 382.178,-2206 376.178,-2206 376.178,-2206 213.491,-2206 213.491,-2206 207.491,-2206 201.491,-2200 201.491,-2194 201.491,-2194 201.491,-2110 201.491,-2110 201.491,-2104 207.491,-2098 213.491,-2098"/>
<text text-anchor="middle" x="294.834" y="-2193.2" font-family="Times New Roman,serif" font-size="11.00" fill="gray">Psr</text>
</g>
<g id="clust22" class="cluster"><title>cluster_Global\Psr\Container</title>
<path fill="none" stroke="gray" d="M221.491,-2106C221.491,-2106 368.178,-2106 368.178,-2106 374.178,-2106 380.178,-2112 380.178,-2118 380.178,-2118 380.178,-2166 380.178,-2166 380.178,-2172 374.178,-2178 368.178,-2178 368.178,-2178 221.491,-2178 221.491,-2178 215.491,-2178 209.491,-2172 209.491,-2166 209.491,-2166 209.491,-2118 209.491,-2118 209.491,-2112 215.491,-2106 221.491,-2106"/>
<text text-anchor="middle" x="294.834" y="-2165.2" font-family="Times New Roman,serif" font-size="11.00" fill="gray">Container</text>
</g>
<!-- \\Rdb\\System\\Libraries\\Db\\Logger -->
<g id="node1" class="node"><title>\\Rdb\\System\\Libraries\\Db\\Logger</title>
<polygon fill="none" stroke="black" points="545.178,-1586 488.178,-1586 488.178,-1550 545.178,-1550 545.178,-1586"/>
<text text-anchor="middle" x="516.678" y="-1565.2" font-family="Courier,monospace" font-size="11.00">Logger</text>
</g>
<!-- \\Rdb\\System\\Libraries\\Db\\Statement -->
<g id="node2" class="node"><title>\\Rdb\\System\\Libraries\\Db\\Statement</title>
<polygon fill="none" stroke="black" points="555.178,-1532 478.178,-1532 478.178,-1496 555.178,-1496 555.178,-1532"/>
<text text-anchor="middle" x="516.678" y="-1511.2" font-family="Courier,monospace" font-size="11.00">Statement</text>
</g>
<!-- PDOStatement -->
<g id="node35" class="node"><title>PDOStatement</title>
<ellipse fill="none" stroke="black" cx="294.834" cy="-1876" rx="64.9885" ry="18"/>
<text text-anchor="middle" x="294.834" y="-1872.3" font-family="Times New Roman,serif" font-size="14.00" fill="gray">PDOStatement</text>
</g>
<!-- \\Rdb\\System\\Libraries\\Db\\Statement&#45;&gt;PDOStatement -->
<g id="edge9" class="edge"><title>\\Rdb\\System\\Libraries\\Db\\Statement&#45;&gt;PDOStatement</title>
<path fill="none" stroke="black" d="M477.823,-1519.98C463.341,-1523.9 447.582,-1530.36 436.178,-1541 343.777,-1627.21 310.039,-1783.74 299.743,-1847.66"/>
<polygon fill="none" stroke="black" points="296.245,-1847.38 298.184,-1857.8 303.164,-1848.44 296.245,-1847.38"/>
</g>
<!-- \\Rdb\\System\\Libraries\\Form -->
<g id="node3" class="node"><title>\\Rdb\\System\\Libraries\\Form</title>
<polygon fill="none" stroke="black" points="543.678,-1712 489.678,-1712 489.678,-1676 543.678,-1676 543.678,-1712"/>
<text text-anchor="middle" x="516.678" y="-1691.2" font-family="Courier,monospace" font-size="11.00">Form</text>
</g>
<!-- \\Rdb\\System\\Libraries\\ArrayUtil -->
<g id="node4" class="node"><title>\\Rdb\\System\\Libraries\\ArrayUtil</title>
<polygon fill="none" stroke="black" points="555.178,-1658 478.178,-1658 478.178,-1622 555.178,-1622 555.178,-1658"/>
<text text-anchor="middle" x="516.678" y="-1637.2" font-family="Courier,monospace" font-size="11.00">ArrayUtil</text>
</g>
<!-- \\Rdb\\System\\Libraries\\Profiler -->
<g id="node5" class="node"><title>\\Rdb\\System\\Libraries\\Profiler</title>
<polygon fill="none" stroke="black" points="552.178,-1766 481.178,-1766 481.178,-1730 552.178,-1730 552.178,-1766"/>
<text text-anchor="middle" x="516.678" y="-1745.2" font-family="Courier,monospace" font-size="11.00">Profiler</text>
</g>
<!-- Profiler -->
<g id="node32" class="node"><title>Profiler</title>
<ellipse fill="none" stroke="black" cx="294.834" cy="-1936" rx="37.8943" ry="18"/>
<text text-anchor="middle" x="294.834" y="-1932.3" font-family="Times New Roman,serif" font-size="14.00" fill="gray">Profiler</text>
</g>
<!-- \\Rdb\\System\\Libraries\\Profiler&#45;&gt;Profiler -->
<g id="edge2" class="edge"><title>\\Rdb\\System\\Libraries\\Profiler&#45;&gt;Profiler</title>
<path fill="none" stroke="black" d="M507.142,-1766.02C489.837,-1800.49 447.192,-1875.77 388.178,-1914 374.562,-1922.82 357.764,-1928.11 342.244,-1931.28"/>
<polygon fill="none" stroke="black" points="341.498,-1927.86 332.276,-1933.07 342.738,-1934.75 341.498,-1927.86"/>
</g>
<!-- \\Rdb\\System\\Libraries\\Db -->
<g id="node6" class="node"><title>\\Rdb\\System\\Libraries\\Db</title>
<polygon fill="none" stroke="black" points="543.678,-1478 489.678,-1478 489.678,-1442 543.678,-1442 543.678,-1478"/>
<text text-anchor="middle" x="516.678" y="-1457.2" font-family="Courier,monospace" font-size="11.00">Db</text>
</g>
<!-- \\Rdb\\System\\Libraries\\Logger -->
<g id="node7" class="node"><title>\\Rdb\\System\\Libraries\\Logger</title>
<polygon fill="none" stroke="black" points="545.178,-1424 488.178,-1424 488.178,-1388 545.178,-1388 545.178,-1424"/>
<text text-anchor="middle" x="516.678" y="-1403.2" font-family="Courier,monospace" font-size="11.00">Logger</text>
</g>
<!-- \\Rdb\\System\\Libraries\\FileSystem -->
<g id="node8" class="node"><title>\\Rdb\\System\\Libraries\\FileSystem</title>
<polygon fill="none" stroke="black" points="558.678,-1370 474.678,-1370 474.678,-1334 558.678,-1334 558.678,-1370"/>
<text text-anchor="middle" x="516.678" y="-1349.2" font-family="Courier,monospace" font-size="11.00">FileSystem</text>
</g>
<!-- \\Rdb\\System\\Libraries\\Url -->
<g id="node9" class="node"><title>\\Rdb\\System\\Libraries\\Url</title>
<polygon fill="none" stroke="black" points="543.678,-1316 489.678,-1316 489.678,-1280 543.678,-1280 543.678,-1316"/>
<text text-anchor="middle" x="516.678" y="-1295.2" font-family="Courier,monospace" font-size="11.00">Url</text>
</g>
<!-- \\Rdb\\System\\Libraries\\Xml -->
<g id="node10" class="node"><title>\\Rdb\\System\\Libraries\\Xml</title>
<polygon fill="none" stroke="black" points="543.678,-1262 489.678,-1262 489.678,-1226 543.678,-1226 543.678,-1262"/>
<text text-anchor="middle" x="516.678" y="-1241.2" font-family="Courier,monospace" font-size="11.00">Xml</text>
</g>
<!-- \\Rdb\\System\\Core\\Console\\Phinx\\Phinx -->
<g id="node11" class="node"><title>\\Rdb\\System\\Core\\Console\\Phinx\\Phinx</title>
<polygon fill="none" stroke="black" points="543.678,-1126 489.678,-1126 489.678,-1090 543.678,-1090 543.678,-1126"/>
<text text-anchor="middle" x="516.678" y="-1105.2" font-family="Courier,monospace" font-size="11.00">Phinx</text>
</g>
<!-- \\Rdb\\System\\Core\\Console\\BaseConsole -->
<g id="node12" class="node"><title>\\Rdb\\System\\Core\\Console\\BaseConsole</title>
<polygon fill="none" stroke="black" points="340.334,-1045 249.334,-1045 249.334,-1009 340.334,-1009 340.334,-1045"/>
<text text-anchor="middle" x="294.834" y="-1024.2" font-family="Courier,monospace" font-size="11.00">BaseConsole</text>
</g>
<!-- Command -->
<g id="node31" class="node"><title>Command</title>
<ellipse fill="none" stroke="black" cx="96.7457" cy="-1027" rx="48.9926" ry="18"/>
<text text-anchor="middle" x="96.7457" y="-1023.3" font-family="Times New Roman,serif" font-size="14.00" fill="gray">Command</text>
</g>
<!-- \\Rdb\\System\\Core\\Console\\BaseConsole&#45;&gt;Command -->
<g id="edge1" class="edge"><title>\\Rdb\\System\\Core\\Console\\BaseConsole&#45;&gt;Command</title>
<path fill="none" stroke="black" d="M248.848,-1027C221.235,-1027 185.588,-1027 155.852,-1027"/>
<polygon fill="none" stroke="black" points="155.604,-1023.5 145.604,-1027 155.604,-1030.5 155.604,-1023.5"/>
</g>
<!-- \\Rdb\\System\\Core\\Console\\Storage -->
<g id="node13" class="node"><title>\\Rdb\\System\\Core\\Console\\Storage</title>
<polygon fill="none" stroke="black" points="548.678,-1072 484.678,-1072 484.678,-1036 548.678,-1036 548.678,-1072"/>
<text text-anchor="middle" x="516.678" y="-1051.2" font-family="Courier,monospace" font-size="11.00">Storage</text>
</g>
<!-- \\Rdb\\System\\Core\\Console\\Storage&#45;&gt;\\Rdb\\System\\Core\\Console\\BaseConsole -->
<g id="edge5" class="edge"><title>\\Rdb\\System\\Core\\Console\\Storage&#45;&gt;\\Rdb\\System\\Core\\Console\\BaseConsole</title>
<path fill="none" stroke="black" d="M484.646,-1050.19C449.875,-1045.92 392.844,-1038.91 350.545,-1033.72"/>
<polygon fill="none" stroke="black" points="350.756,-1030.22 340.404,-1032.47 349.902,-1037.17 350.756,-1030.22"/>
</g>
<!-- \\Rdb\\System\\Core\\Console\\Module -->
<g id="node14" class="node"><title>\\Rdb\\System\\Core\\Console\\Module</title>
<polygon fill="none" stroke="black" points="545.178,-1018 488.178,-1018 488.178,-982 545.178,-982 545.178,-1018"/>
<text text-anchor="middle" x="516.678" y="-997.2" font-family="Courier,monospace" font-size="11.00">Module</text>
</g>
<!-- \\Rdb\\System\\Core\\Console\\Module&#45;&gt;\\Rdb\\System\\Core\\Console\\BaseConsole -->
<g id="edge7" class="edge"><title>\\Rdb\\System\\Core\\Console\\Module&#45;&gt;\\Rdb\\System\\Core\\Console\\BaseConsole</title>
<path fill="none" stroke="black" d="M487.834,-1003.42C453.499,-1007.64 394.339,-1014.9 350.739,-1020.26"/>
<polygon fill="none" stroke="black" points="350.072,-1016.81 340.574,-1021.51 350.926,-1023.76 350.072,-1016.81"/>
</g>
<!-- \\Rdb\\System\\Core\\Controllers\\Error\\E405Controller -->
<g id="node15" class="node"><title>\\Rdb\\System\\Core\\Controllers\\Error\\E405Controller</title>
<polygon fill="none" stroke="black" points="572.178,-910 461.178,-910 461.178,-874 572.178,-874 572.178,-910"/>
<text text-anchor="middle" x="516.678" y="-889.2" font-family="Courier,monospace" font-size="11.00">E405Controller</text>
</g>
<!-- \\Rdb\\System\\Core\\Controllers\\BaseController -->
<g id="node17" class="node"><title>\\Rdb\\System\\Core\\Controllers\\BaseController</title>
<polygon fill="none" stroke="black" points="350.334,-856 239.334,-856 239.334,-820 350.334,-820 350.334,-856"/>
<text text-anchor="start" x="260.834" y="-841.2" font-family="Courier,monospace" font-size="11.00">«abstract»</text>
<text text-anchor="start" x="247.334" y="-829.2" font-family="Courier,monospace" font-size="11.00">BaseController</text>
</g>
<!-- \\Rdb\\System\\Core\\Controllers\\Error\\E405Controller&#45;&gt;\\Rdb\\System\\Core\\Controllers\\BaseController -->
<g id="edge6" class="edge"><title>\\Rdb\\System\\Core\\Controllers\\Error\\E405Controller&#45;&gt;\\Rdb\\System\\Core\\Controllers\\BaseController</title>
<path fill="none" stroke="black" d="M461.052,-878.582C430.512,-871.081 392.272,-861.688 360.275,-853.828"/>
<polygon fill="none" stroke="black" points="361.106,-850.429 350.56,-851.442 359.437,-857.227 361.106,-850.429"/>
</g>
<!-- \\Rdb\\System\\Core\\Controllers\\Error\\E404Controller -->
<g id="node16" class="node"><title>\\Rdb\\System\\Core\\Controllers\\Error\\E404Controller</title>
<polygon fill="none" stroke="black" points="572.178,-856 461.178,-856 461.178,-820 572.178,-820 572.178,-856"/>
<text text-anchor="middle" x="516.678" y="-835.2" font-family="Courier,monospace" font-size="11.00">E404Controller</text>
</g>
<!-- \\Rdb\\System\\Core\\Controllers\\Error\\E404Controller&#45;&gt;\\Rdb\\System\\Core\\Controllers\\BaseController -->
<g id="edge8" class="edge"><title>\\Rdb\\System\\Core\\Controllers\\Error\\E404Controller&#45;&gt;\\Rdb\\System\\Core\\Controllers\\BaseController</title>
<path fill="none" stroke="black" d="M461.052,-838C430.644,-838 392.602,-838 360.689,-838"/>
<polygon fill="none" stroke="black" points="360.56,-834.5 350.56,-838 360.56,-841.5 360.56,-834.5"/>
</g>
<!-- \\Rdb\\System\\Core\\Controllers\\DefaultController -->
<g id="node18" class="node"><title>\\Rdb\\System\\Core\\Controllers\\DefaultController</title>
<polygon fill="none" stroke="black" points="582.178,-802 451.178,-802 451.178,-766 582.178,-766 582.178,-802"/>
<text text-anchor="middle" x="516.678" y="-781.2" font-family="Courier,monospace" font-size="11.00">DefaultController</text>
</g>
<!-- \\Rdb\\System\\Core\\Controllers\\DefaultController&#45;&gt;\\Rdb\\System\\Core\\Controllers\\BaseController -->
<g id="edge10" class="edge"><title>\\Rdb\\System\\Core\\Controllers\\DefaultController&#45;&gt;\\Rdb\\System\\Core\\Controllers\\BaseController</title>
<path fill="none" stroke="black" d="M450.906,-799.91C422.355,-806.923 388.885,-815.144 360.362,-822.15"/>
<polygon fill="none" stroke="black" points="359.372,-818.789 350.496,-824.574 361.042,-825.587 359.372,-818.789"/>
</g>
<!-- \\Rdb\\System\\Core\\Models\\BaseModel -->
<g id="node19" class="node"><title>\\Rdb\\System\\Core\\Models\\BaseModel</title>
<polygon fill="none" stroke="black" points="558.678,-722 474.678,-722 474.678,-686 558.678,-686 558.678,-722"/>
<text text-anchor="start" x="482.678" y="-707.2" font-family="Courier,monospace" font-size="11.00">«abstract»</text>
<text text-anchor="start" x="486.178" y="-695.2" font-family="Courier,monospace" font-size="11.00">BaseModel</text>
</g>
<!-- \\Rdb\\System\\Middleware\\Profiler -->
<g id="node20" class="node"><title>\\Rdb\\System\\Middleware\\Profiler</title>
<polygon fill="none" stroke="black" points="552.178,-554 481.178,-554 481.178,-518 552.178,-518 552.178,-554"/>
<text text-anchor="middle" x="516.678" y="-533.2" font-family="Courier,monospace" font-size="11.00">Profiler</text>
</g>
<!-- \\Rdb\\System\\Middleware\\RemoveTrailingSlash -->
<g id="node21" class="node"><title>\\Rdb\\System\\Middleware\\RemoveTrailingSlash</title>
<polygon fill="none" stroke="black" points="589.178,-500 444.178,-500 444.178,-464 589.178,-464 589.178,-500"/>
<text text-anchor="middle" x="516.678" y="-479.2" font-family="Courier,monospace" font-size="11.00">RemoveTrailingSlash</text>
</g>
<!-- \\Rdb\\System\\Middleware\\I18n -->
<g id="node22" class="node"><title>\\Rdb\\System\\Middleware\\I18n</title>
<polygon fill="none" stroke="black" points="543.678,-446 489.678,-446 489.678,-410 543.678,-410 543.678,-446"/>
<text text-anchor="middle" x="516.678" y="-425.2" font-family="Courier,monospace" font-size="11.00">I18n</text>
</g>
<!-- \\Rdb\\System\\Interfaces\\ModuleInstaller -->
<g id="node23" class="node"><title>\\Rdb\\System\\Interfaces\\ModuleInstaller</title>
<polygon fill="none" stroke="black" points="575.678,-634 457.678,-634 457.678,-598 575.678,-598 575.678,-634"/>
<text text-anchor="middle" x="516.678" y="-613.2" font-family="Courier,monospace" font-size="11.00">ModuleInstaller</text>
</g>
<!-- \\Rdb\\System\\Config -->
<g id="node24" class="node"><title>\\Rdb\\System\\Config</title>
<polygon fill="none" stroke="black" points="545.178,-392 488.178,-392 488.178,-356 545.178,-356 545.178,-392"/>
<text text-anchor="middle" x="516.678" y="-371.2" font-family="Courier,monospace" font-size="11.00">Config</text>
</g>
<!-- \\Rdb\\System\\App -->
<g id="node25" class="node"><title>\\Rdb\\System\\App</title>
<polygon fill="none" stroke="black" points="543.678,-338 489.678,-338 489.678,-302 543.678,-302 543.678,-338"/>
<text text-anchor="middle" x="516.678" y="-317.2" font-family="Courier,monospace" font-size="11.00">App</text>
</g>
<!-- \\Rdb\\System\\Container -->
<g id="node26" class="node"><title>\\Rdb\\System\\Container</title>
<polygon fill="none" stroke="black" points="555.178,-284 478.178,-284 478.178,-248 555.178,-248 555.178,-284"/>
<text text-anchor="middle" x="516.678" y="-263.2" font-family="Courier,monospace" font-size="11.00">Container</text>
</g>
<!-- Container -->
<g id="node33" class="node"><title>Container</title>
<ellipse fill="none" stroke="black" cx="294.834" cy="-2044" rx="46.2923" ry="18"/>
<text text-anchor="middle" x="294.834" y="-2040.3" font-family="Times New Roman,serif" font-size="14.00" fill="gray">Container</text>
</g>
<!-- \\Rdb\\System\\Container&#45;&gt;Container -->
<g id="edge3" class="edge"><title>\\Rdb\\System\\Container&#45;&gt;Container</title>
<path fill="none" stroke="black" d="M478.129,-269.457C462.596,-272.934 445.96,-279.748 436.178,-293 324.418,-444.407 481.547,-1822.61 388.178,-1986 377.41,-2004.84 357.77,-2018.44 339.362,-2027.71"/>
<polygon fill="none" stroke="black" points="337.734,-2024.61 330.186,-2032.04 340.723,-2030.94 337.734,-2024.61"/>
</g>
<!-- ContainerInterface -->
<g id="node34" class="node"><title>ContainerInterface</title>
<ellipse fill="none" stroke="black" cx="294.834" cy="-2132" rx="77.1866" ry="18"/>
<text text-anchor="middle" x="294.834" y="-2128.3" font-family="Times New Roman,serif" font-size="14.00" fill="gray">ContainerInterface</text>
</g>
<!-- \\Rdb\\System\\Container&#45;&gt;ContainerInterface -->
<g id="edge4" class="edge"><title>\\Rdb\\System\\Container&#45;&gt;ContainerInterface</title>
<path fill="none" stroke="black" stroke-dasharray="1,5" d="M478.118,-269.449C462.583,-272.925 445.948,-279.74 436.178,-293 317.431,-454.159 501.791,-1929.18 388.178,-2094 381.709,-2103.38 372.473,-2110.45 362.317,-2115.78"/>
<polygon fill="none" stroke="black" points="360.789,-2112.63 353.202,-2120.03 363.745,-2118.98 360.789,-2112.63"/>
</g>
<!-- \\Rdb\\System\\Router -->
<g id="node27" class="node"><title>\\Rdb\\System\\Router</title>
<polygon fill="none" stroke="black" points="545.178,-230 488.178,-230 488.178,-194 545.178,-194 545.178,-230"/>
<text text-anchor="middle" x="516.678" y="-209.2" font-family="Courier,monospace" font-size="11.00">Router</text>
</g>
<!-- \\Rdb\\System\\Views -->
<g id="node28" class="node"><title>\\Rdb\\System\\Views</title>
<polygon fill="none" stroke="black" points="543.678,-176 489.678,-176 489.678,-140 543.678,-140 543.678,-176"/>
<text text-anchor="middle" x="516.678" y="-155.2" font-family="Courier,monospace" font-size="11.00">Views</text>
</g>
<!-- \\Rdb\\System\\Cli -->
<g id="node29" class="node"><title>\\Rdb\\System\\Cli</title>
<polygon fill="none" stroke="black" points="543.678,-122 489.678,-122 489.678,-86 543.678,-86 543.678,-122"/>
<text text-anchor="middle" x="516.678" y="-101.2" font-family="Courier,monospace" font-size="11.00">Cli</text>
</g>
<!-- \\Rdb\\System\\Modules -->
<g id="node30" class="node"><title>\\Rdb\\System\\Modules</title>
<polygon fill="none" stroke="black" points="548.678,-68 484.678,-68 484.678,-32 548.678,-32 548.678,-68"/>
<text text-anchor="middle" x="516.678" y="-47.2" font-family="Courier,monospace" font-size="11.00">Modules</text>
</g>
</g>
</svg>
