<?xml version="1.0" encoding="UTF-8" standalone="no"?>
<!DOCTYPE svg PUBLIC "-//W3C//DTD SVG 1.1//EN"
 "http://www.w3.org/Graphics/SVG/1.1/DTD/svg11.dtd">
<!-- Generated by graphviz version 2.38.0 (20140413.2041)
 -->
<!-- Title: G Pages: 1 -->
<svg width="630pt" height="2214pt"
 viewBox="0.00 0.00 630.18 2214.00" xmlns="http://www.w3.org/2000/svg" xmlns:xlink="http://www.w3.org/1999/xlink">
<g id="graph0" class="graph" transform="scale(1 1) rotate(0) translate(4 2210)">
<title>G</title>
<polygon fill="white" stroke="none" points="-4,4 -4,-2210 626.178,-2210 626.178,4 -4,4"/>
<g id="clust1" class="cluster"><title>cluster_Global</title>
<path fill="none" stroke="gray" d="M20,-8C20,-8 602.178,-8 602.178,-8 608.178,-8 614.178,-14 614.178,-20 614.178,-20 614.178,-2186 614.178,-2186 614.178,-2192 608.178,-2198 602.178,-2198 602.178,-2198 20,-2198 20,-2198 14,-2198 8,-2192 8,-2186 8,-2186 8,-20 8,-20 8,-14 14,-8 20,-8"/>
<text text-anchor="middle" x="311.089" y="-2185.2" font-family="Times New Roman,serif" font-size="11.00" fill="gray">Global</text>
</g>
<g id="clust2" class="cluster"><title>cluster_\System</title>
<path fill="none" stroke="gray" d="M227.334,-16C227.334,-16 594.178,-16 594.178,-16 600.178,-16 606.178,-22 606.178,-28 606.178,-28 606.178,-1802 606.178,-1802 606.178,-1808 600.178,-1814 594.178,-1814 594.178,-1814 227.334,-1814 227.334,-1814 221.334,-1814 215.334,-1808 215.334,-1802 215.334,-1802 215.334,-28 215.334,-28 215.334,-22 221.334,-16 227.334,-16"/>
<text text-anchor="middle" x="410.756" y="-1801.2" font-family="Times New Roman,serif" font-size="11.00" fill="gray">System</text>
</g>
<g id="clust3" class="cluster"><title>cluster_\System\Core</title>
<path fill="none" stroke="gray" d="M235.334,-1246C235.334,-1246 586.178,-1246 586.178,-1246 592.178,-1246 598.178,-1252 598.178,-1258 598.178,-1258 598.178,-1774 598.178,-1774 598.178,-1780 592.178,-1786 586.178,-1786 586.178,-1786 235.334,-1786 235.334,-1786 229.334,-1786 223.334,-1780 223.334,-1774 223.334,-1774 223.334,-1258 223.334,-1258 223.334,-1252 229.334,-1246 235.334,-1246"/>
<text text-anchor="middle" x="410.756" y="-1773.2" font-family="Times New Roman,serif" font-size="11.00" fill="gray">Core</text>
</g>
<g id="clust4" class="cluster"><title>cluster_\System\Core\Console</title>
<path fill="none" stroke="gray" d="M253.334,-1550C253.334,-1550 547.678,-1550 547.678,-1550 553.678,-1550 559.678,-1556 559.678,-1562 559.678,-1562 559.678,-1746 559.678,-1746 559.678,-1752 553.678,-1758 547.678,-1758 547.678,-1758 253.334,-1758 253.334,-1758 247.334,-1758 241.334,-1752 241.334,-1746 241.334,-1746 241.334,-1562 241.334,-1562 241.334,-1556 247.334,-1550 253.334,-1550"/>
<text text-anchor="middle" x="400.506" y="-1745.2" font-family="Times New Roman,serif" font-size="11.00" fill="gray">Console</text>
</g>
<g id="clust5" class="cluster"><title>cluster_\System\Core\Console\Phinx</title>
<path fill="none" stroke="gray" d="M493.678,-1658C493.678,-1658 539.678,-1658 539.678,-1658 545.678,-1658 551.678,-1664 551.678,-1670 551.678,-1670 551.678,-1718 551.678,-1718 551.678,-1724 545.678,-1730 539.678,-1730 539.678,-1730 493.678,-1730 493.678,-1730 487.678,-1730 481.678,-1724 481.678,-1718 481.678,-1718 481.678,-1670 481.678,-1670 481.678,-1664 487.678,-1658 493.678,-1658"/>
<text text-anchor="middle" x="516.678" y="-1717.2" font-family="Times New Roman,serif" font-size="11.00" fill="gray">Phinx</text>
</g>
<g id="clust6" class="cluster"><title>cluster_\System\Core\Controllers</title>
<path fill="none" stroke="gray" d="M243.334,-1334C243.334,-1334 578.178,-1334 578.178,-1334 584.178,-1334 590.178,-1340 590.178,-1346 590.178,-1346 590.178,-1530 590.178,-1530 590.178,-1536 584.178,-1542 578.178,-1542 578.178,-1542 243.334,-1542 243.334,-1542 237.334,-1542 231.334,-1536 231.334,-1530 231.334,-1530 231.334,-1346 231.334,-1346 231.334,-1340 237.334,-1334 243.334,-1334"/>
<text text-anchor="middle" x="410.756" y="-1529.2" font-family="Times New Roman,serif" font-size="11.00" fill="gray">Controllers</text>
</g>
<g id="clust7" class="cluster"><title>cluster_\System\Core\Controllers\Error</title>
<path fill="none" stroke="gray" d="M465.178,-1388C465.178,-1388 568.178,-1388 568.178,-1388 574.178,-1388 580.178,-1394 580.178,-1400 580.178,-1400 580.178,-1502 580.178,-1502 580.178,-1508 574.178,-1514 568.178,-1514 568.178,-1514 465.178,-1514 465.178,-1514 459.178,-1514 453.178,-1508 453.178,-1502 453.178,-1502 453.178,-1400 453.178,-1400 453.178,-1394 459.178,-1388 465.178,-1388"/>
<text text-anchor="middle" x="516.678" y="-1501.2" font-family="Times New Roman,serif" font-size="11.00" fill="gray">Error</text>
</g>
<g id="clust8" class="cluster"><title>cluster_\System\Core\Models</title>
<path fill="none" stroke="gray" d="M478.678,-1254C478.678,-1254 554.678,-1254 554.678,-1254 560.678,-1254 566.678,-1260 566.678,-1266 566.678,-1266 566.678,-1314 566.678,-1314 566.678,-1320 560.678,-1326 554.678,-1326 554.678,-1326 478.678,-1326 478.678,-1326 472.678,-1326 466.678,-1320 466.678,-1314 466.678,-1314 466.678,-1266 466.678,-1266 466.678,-1260 472.678,-1254 478.678,-1254"/>
<text text-anchor="middle" x="516.678" y="-1313.2" font-family="Times New Roman,serif" font-size="11.00" fill="gray">Models</text>
</g>
<g id="clust9" class="cluster"><title>cluster_\System\Interfaces</title>
<path fill="none" stroke="gray" d="M461.678,-1166C461.678,-1166 571.678,-1166 571.678,-1166 577.678,-1166 583.678,-1172 583.678,-1178 583.678,-1178 583.678,-1226 583.678,-1226 583.678,-1232 577.678,-1238 571.678,-1238 571.678,-1238 461.678,-1238 461.678,-1238 455.678,-1238 449.678,-1232 449.678,-1226 449.678,-1226 449.678,-1178 449.678,-1178 449.678,-1172 455.678,-1166 461.678,-1166"/>
<text text-anchor="middle" x="516.678" y="-1225.2" font-family="Times New Roman,serif" font-size="11.00" fill="gray">Interfaces</text>
</g>
<g id="clust10" class="cluster"><title>cluster_\System\Libraries</title>
<path fill="none" stroke="gray" d="M474.178,-582C474.178,-582 559.178,-582 559.178,-582 565.178,-582 571.178,-588 571.178,-594 571.178,-594 571.178,-1146 571.178,-1146 571.178,-1152 565.178,-1158 559.178,-1158 559.178,-1158 474.178,-1158 474.178,-1158 468.178,-1158 462.178,-1152 462.178,-1146 462.178,-1146 462.178,-594 462.178,-594 462.178,-588 468.178,-582 474.178,-582"/>
<text text-anchor="middle" x="516.678" y="-1145.2" font-family="Times New Roman,serif" font-size="11.00" fill="gray">Libraries</text>
</g>
<g id="clust11" class="cluster"><title>cluster_\System\Libraries\Db</title>
<path fill="none" stroke="gray" d="M482.178,-690C482.178,-690 551.178,-690 551.178,-690 557.178,-690 563.178,-696 563.178,-702 563.178,-702 563.178,-804 563.178,-804 563.178,-810 557.178,-816 551.178,-816 551.178,-816 482.178,-816 482.178,-816 476.178,-816 470.178,-810 470.178,-804 470.178,-804 470.178,-702 470.178,-702 470.178,-696 476.178,-690 482.178,-690"/>
<text text-anchor="middle" x="516.678" y="-803.2" font-family="Times New Roman,serif" font-size="11.00" fill="gray">Db</text>
</g>
<g id="clust12" class="cluster"><title>cluster_\System\Middleware</title>
<path fill="none" stroke="gray" d="M448.178,-394C448.178,-394 585.178,-394 585.178,-394 591.178,-394 597.178,-400 597.178,-406 597.178,-406 597.178,-562 597.178,-562 597.178,-568 591.178,-574 585.178,-574 585.178,-574 448.178,-574 448.178,-574 442.178,-574 436.178,-568 436.178,-562 436.178,-562 436.178,-406 436.178,-406 436.178,-400 442.178,-394 448.178,-394"/>
<text text-anchor="middle" x="516.678" y="-561.2" font-family="Times New Roman,serif" font-size="11.00" fill="gray">Middleware</text>
</g>
<g id="clust20" class="cluster"><title>cluster_Global\Rundiz</title>
<path fill="none" stroke="gray" d="M253.138,-1866C253.138,-1866 336.531,-1866 336.531,-1866 342.531,-1866 348.531,-1872 348.531,-1878 348.531,-1878 348.531,-1962 348.531,-1962 348.531,-1968 342.531,-1974 336.531,-1974 336.531,-1974 253.138,-1974 253.138,-1974 247.138,-1974 241.138,-1968 241.138,-1962 241.138,-1962 241.138,-1878 241.138,-1878 241.138,-1872 247.138,-1866 253.138,-1866"/>
<text text-anchor="middle" x="294.834" y="-1961.2" font-family="Times New Roman,serif" font-size="11.00" fill="gray">Rundiz</text>
</g>
<g id="clust21" class="cluster"><title>cluster_Global\Rundiz\Profiler</title>
<path fill="none" stroke="gray" d="M261.138,-1874C261.138,-1874 328.531,-1874 328.531,-1874 334.531,-1874 340.531,-1880 340.531,-1886 340.531,-1886 340.531,-1934 340.531,-1934 340.531,-1940 334.531,-1946 328.531,-1946 328.531,-1946 261.138,-1946 261.138,-1946 255.138,-1946 249.138,-1940 249.138,-1934 249.138,-1934 249.138,-1886 249.138,-1886 249.138,-1880 255.138,-1874 261.138,-1874"/>
<text text-anchor="middle" x="294.834" y="-1933.2" font-family="Times New Roman,serif" font-size="11.00" fill="gray">Profiler</text>
</g>
<g id="clust13" class="cluster"><title>cluster_Global\Pimple</title>
<path fill="none" stroke="gray" d="M252.689,-1982C252.689,-1982 336.98,-1982 336.98,-1982 342.98,-1982 348.98,-1988 348.98,-1994 348.98,-1994 348.98,-2042 348.98,-2042 348.98,-2048 342.98,-2054 336.98,-2054 336.98,-2054 252.689,-2054 252.689,-2054 246.689,-2054 240.689,-2048 240.689,-2042 240.689,-2042 240.689,-1994 240.689,-1994 240.689,-1988 246.689,-1982 252.689,-1982"/>
<text text-anchor="middle" x="294.834" y="-2041.2" font-family="Times New Roman,serif" font-size="11.00" fill="gray">Pimple</text>
</g>
<g id="clust16" class="cluster"><title>cluster_Global\Symfony</title>
<path fill="none" stroke="gray" d="M28,-1553C28,-1553 165.491,-1553 165.491,-1553 171.491,-1553 177.491,-1559 177.491,-1565 177.491,-1565 177.491,-1721 177.491,-1721 177.491,-1727 171.491,-1733 165.491,-1733 165.491,-1733 28,-1733 28,-1733 22,-1733 16,-1727 16,-1721 16,-1721 16,-1565 16,-1565 16,-1559 22,-1553 28,-1553"/>
<text text-anchor="middle" x="96.7457" y="-1720.2" font-family="Times New Roman,serif" font-size="11.00" fill="gray">Symfony</text>
</g>
<g id="clust17" class="cluster"><title>cluster_Global\Symfony\Component</title>
<path fill="none" stroke="gray" d="M36,-1561C36,-1561 157.491,-1561 157.491,-1561 163.491,-1561 169.491,-1567 169.491,-1573 169.491,-1573 169.491,-1693 169.491,-1693 169.491,-1699 163.491,-1705 157.491,-1705 157.491,-1705 36,-1705 36,-1705 30,-1705 24,-1699 24,-1693 24,-1693 24,-1573 24,-1573 24,-1567 30,-1561 36,-1561"/>
<text text-anchor="middle" x="96.7457" y="-1692.2" font-family="Times New Roman,serif" font-size="11.00" fill="gray">Component</text>
</g>
<g id="clust18" class="cluster"><title>cluster_Global\Symfony\Component\Console</title>
<path fill="none" stroke="gray" d="M44,-1569C44,-1569 149.491,-1569 149.491,-1569 155.491,-1569 161.491,-1575 161.491,-1581 161.491,-1581 161.491,-1665 161.491,-1665 161.491,-1671 155.491,-1677 149.491,-1677 149.491,-1677 44,-1677 44,-1677 38,-1677 32,-1671 32,-1665 32,-1665 32,-1581 32,-1581 32,-1575 38,-1569 44,-1569"/>
<text text-anchor="middle" x="96.7457" y="-1664.2" font-family="Times New Roman,serif" font-size="11.00" fill="gray">Console</text>
</g>
<g id="clust19" class="cluster"><title>cluster_Global\Symfony\Component\Console\Command</title>
<path fill="none" stroke="gray" d="M52,-1577C52,-1577 141.491,-1577 141.491,-1577 147.491,-1577 153.491,-1583 153.491,-1589 153.491,-1589 153.491,-1637 153.491,-1637 153.491,-1643 147.491,-1649 141.491,-1649 141.491,-1649 52,-1649 52,-1649 46,-1649 40,-1643 40,-1637 40,-1637 40,-1589 40,-1589 40,-1583 46,-1577 52,-1577"/>
<text text-anchor="middle" x="96.7457" y="-1636.2" font-family="Times New Roman,serif" font-size="11.00" fill="gray">Command</text>
</g>
<g id="clust14" class="cluster"><title>cluster_Global\Psr</title>
<path fill="none" stroke="gray" d="M213.491,-2062C213.491,-2062 376.178,-2062 376.178,-2062 382.178,-2062 388.178,-2068 388.178,-2074 388.178,-2074 388.178,-2158 388.178,-2158 388.178,-2164 382.178,-2170 376.178,-2170 376.178,-2170 213.491,-2170 213.491,-2170 207.491,-2170 201.491,-2164 201.491,-2158 201.491,-2158 201.491,-2074 201.491,-2074 201.491,-2068 207.491,-2062 213.491,-2062"/>
<text text-anchor="middle" x="294.834" y="-2157.2" font-family="Times New Roman,serif" font-size="11.00" fill="gray">Psr</text>
</g>
<g id="clust15" class="cluster"><title>cluster_Global\Psr\Container</title>
<path fill="none" stroke="gray" d="M221.491,-2070C221.491,-2070 368.178,-2070 368.178,-2070 374.178,-2070 380.178,-2076 380.178,-2082 380.178,-2082 380.178,-2130 380.178,-2130 380.178,-2136 374.178,-2142 368.178,-2142 368.178,-2142 221.491,-2142 221.491,-2142 215.491,-2142 209.491,-2136 209.491,-2130 209.491,-2130 209.491,-2082 209.491,-2082 209.491,-2076 215.491,-2070 221.491,-2070"/>
<text text-anchor="middle" x="294.834" y="-2129.2" font-family="Times New Roman,serif" font-size="11.00" fill="gray">Container</text>
</g>
<!-- \\System\\Core\\Console\\Phinx\\Phinx -->
<g id="node1" class="node"><title>\\System\\Core\\Console\\Phinx\\Phinx</title>
<polygon fill="none" stroke="black" points="543.678,-1702 489.678,-1702 489.678,-1666 543.678,-1666 543.678,-1702"/>
<text text-anchor="middle" x="516.678" y="-1681.2" font-family="Courier,monospace" font-size="11.00">Phinx</text>
</g>
<!-- \\System\\Core\\Console\\BaseConsole -->
<g id="node2" class="node"><title>\\System\\Core\\Console\\BaseConsole</title>
<polygon fill="none" stroke="black" points="340.334,-1621 249.334,-1621 249.334,-1585 340.334,-1585 340.334,-1621"/>
<text text-anchor="middle" x="294.834" y="-1600.2" font-family="Courier,monospace" font-size="11.00">BaseConsole</text>
</g>
<!-- Command -->
<g id="node33" class="node"><title>Command</title>
<ellipse fill="none" stroke="black" cx="96.7457" cy="-1603" rx="48.9926" ry="18"/>
<text text-anchor="middle" x="96.7457" y="-1599.3" font-family="Times New Roman,serif" font-size="14.00" fill="gray">Command</text>
</g>
<!-- \\System\\Core\\Console\\BaseConsole&#45;&gt;Command -->
<g id="edge3" class="edge"><title>\\System\\Core\\Console\\BaseConsole&#45;&gt;Command</title>
<path fill="none" stroke="black" d="M248.848,-1603C221.235,-1603 185.588,-1603 155.852,-1603"/>
<polygon fill="none" stroke="black" points="155.604,-1599.5 145.604,-1603 155.604,-1606.5 155.604,-1599.5"/>
</g>
<!-- \\System\\Core\\Console\\Module -->
<g id="node3" class="node"><title>\\System\\Core\\Console\\Module</title>
<polygon fill="none" stroke="black" points="545.178,-1648 488.178,-1648 488.178,-1612 545.178,-1612 545.178,-1648"/>
<text text-anchor="middle" x="516.678" y="-1627.2" font-family="Courier,monospace" font-size="11.00">Module</text>
</g>
<!-- \\System\\Core\\Console\\Module&#45;&gt;\\System\\Core\\Console\\BaseConsole -->
<g id="edge4" class="edge"><title>\\System\\Core\\Console\\Module&#45;&gt;\\System\\Core\\Console\\BaseConsole</title>
<path fill="none" stroke="black" d="M487.834,-1626.58C453.499,-1622.36 394.339,-1615.1 350.739,-1609.74"/>
<polygon fill="none" stroke="black" points="350.926,-1606.24 340.574,-1608.49 350.072,-1613.19 350.926,-1606.24"/>
</g>
<!-- \\System\\Core\\Console\\Storage -->
<g id="node4" class="node"><title>\\System\\Core\\Console\\Storage</title>
<polygon fill="none" stroke="black" points="548.678,-1594 484.678,-1594 484.678,-1558 548.678,-1558 548.678,-1594"/>
<text text-anchor="middle" x="516.678" y="-1573.2" font-family="Courier,monospace" font-size="11.00">Storage</text>
</g>
<!-- \\System\\Core\\Console\\Storage&#45;&gt;\\System\\Core\\Console\\BaseConsole -->
<g id="edge5" class="edge"><title>\\System\\Core\\Console\\Storage&#45;&gt;\\System\\Core\\Console\\BaseConsole</title>
<path fill="none" stroke="black" d="M484.646,-1579.81C449.875,-1584.08 392.844,-1591.09 350.545,-1596.28"/>
<polygon fill="none" stroke="black" points="349.902,-1592.83 340.404,-1597.53 350.756,-1599.78 349.902,-1592.83"/>
</g>
<!-- \\System\\Core\\Controllers\\Error\\E404Controller -->
<g id="node5" class="node"><title>\\System\\Core\\Controllers\\Error\\E404Controller</title>
<polygon fill="none" stroke="black" points="572.178,-1486 461.178,-1486 461.178,-1450 572.178,-1450 572.178,-1486"/>
<text text-anchor="middle" x="516.678" y="-1465.2" font-family="Courier,monospace" font-size="11.00">E404Controller</text>
</g>
<!-- \\System\\Core\\Controllers\\BaseController -->
<g id="node7" class="node"><title>\\System\\Core\\Controllers\\BaseController</title>
<polygon fill="none" stroke="black" points="350.334,-1432 239.334,-1432 239.334,-1396 350.334,-1396 350.334,-1432"/>
<text text-anchor="start" x="260.834" y="-1417.2" font-family="Courier,monospace" font-size="11.00">«abstract»</text>
<text text-anchor="start" x="247.334" y="-1405.2" font-family="Courier,monospace" font-size="11.00">BaseController</text>
</g>
<!-- \\System\\Core\\Controllers\\Error\\E404Controller&#45;&gt;\\System\\Core\\Controllers\\BaseController -->
<g id="edge7" class="edge"><title>\\System\\Core\\Controllers\\Error\\E404Controller&#45;&gt;\\System\\Core\\Controllers\\BaseController</title>
<path fill="none" stroke="black" d="M461.052,-1454.58C430.512,-1447.08 392.272,-1437.69 360.275,-1429.83"/>
<polygon fill="none" stroke="black" points="361.106,-1426.43 350.56,-1427.44 359.437,-1433.23 361.106,-1426.43"/>
</g>
<!-- \\System\\Core\\Controllers\\Error\\E405Controller -->
<g id="node6" class="node"><title>\\System\\Core\\Controllers\\Error\\E405Controller</title>
<polygon fill="none" stroke="black" points="572.178,-1432 461.178,-1432 461.178,-1396 572.178,-1396 572.178,-1432"/>
<text text-anchor="middle" x="516.678" y="-1411.2" font-family="Courier,monospace" font-size="11.00">E405Controller</text>
</g>
<!-- \\System\\Core\\Controllers\\Error\\E405Controller&#45;&gt;\\System\\Core\\Controllers\\BaseController -->
<g id="edge8" class="edge"><title>\\System\\Core\\Controllers\\Error\\E405Controller&#45;&gt;\\System\\Core\\Controllers\\BaseController</title>
<path fill="none" stroke="black" d="M461.052,-1414C430.644,-1414 392.602,-1414 360.689,-1414"/>
<polygon fill="none" stroke="black" points="360.56,-1410.5 350.56,-1414 360.56,-1417.5 360.56,-1410.5"/>
</g>
<!-- \\System\\Core\\Controllers\\DefaultController -->
<g id="node8" class="node"><title>\\System\\Core\\Controllers\\DefaultController</title>
<polygon fill="none" stroke="black" points="582.178,-1378 451.178,-1378 451.178,-1342 582.178,-1342 582.178,-1378"/>
<text text-anchor="middle" x="516.678" y="-1357.2" font-family="Courier,monospace" font-size="11.00">DefaultController</text>
</g>
<!-- \\System\\Core\\Controllers\\DefaultController&#45;&gt;\\System\\Core\\Controllers\\BaseController -->
<g id="edge6" class="edge"><title>\\System\\Core\\Controllers\\DefaultController&#45;&gt;\\System\\Core\\Controllers\\BaseController</title>
<path fill="none" stroke="black" d="M450.906,-1375.91C422.355,-1382.92 388.885,-1391.14 360.362,-1398.15"/>
<polygon fill="none" stroke="black" points="359.372,-1394.79 350.496,-1400.57 361.042,-1401.59 359.372,-1394.79"/>
</g>
<!-- \\System\\Core\\Models\\BaseModel -->
<g id="node9" class="node"><title>\\System\\Core\\Models\\BaseModel</title>
<polygon fill="none" stroke="black" points="558.678,-1298 474.678,-1298 474.678,-1262 558.678,-1262 558.678,-1298"/>
<text text-anchor="start" x="482.678" y="-1283.2" font-family="Courier,monospace" font-size="11.00">«abstract»</text>
<text text-anchor="start" x="486.178" y="-1271.2" font-family="Courier,monospace" font-size="11.00">BaseModel</text>
</g>
<!-- \\System\\Interfaces\\ModuleInstaller -->
<g id="node10" class="node"><title>\\System\\Interfaces\\ModuleInstaller</title>
<polygon fill="none" stroke="black" points="575.678,-1210 457.678,-1210 457.678,-1174 575.678,-1174 575.678,-1210"/>
<text text-anchor="middle" x="516.678" y="-1189.2" font-family="Courier,monospace" font-size="11.00">ModuleInstaller</text>
</g>
<!-- \\System\\Libraries\\Db\\Logger -->
<g id="node11" class="node"><title>\\System\\Libraries\\Db\\Logger</title>
<polygon fill="none" stroke="black" points="545.178,-788 488.178,-788 488.178,-752 545.178,-752 545.178,-788"/>
<text text-anchor="middle" x="516.678" y="-767.2" font-family="Courier,monospace" font-size="11.00">Logger</text>
</g>
<!-- \\System\\Libraries\\Db\\Statement -->
<g id="node12" class="node"><title>\\System\\Libraries\\Db\\Statement</title>
<polygon fill="none" stroke="black" points="555.178,-734 478.178,-734 478.178,-698 555.178,-698 555.178,-734"/>
<text text-anchor="middle" x="516.678" y="-713.2" font-family="Courier,monospace" font-size="11.00">Statement</text>
</g>
<!-- PDOStatement -->
<g id="node35" class="node"><title>PDOStatement</title>
<ellipse fill="none" stroke="black" cx="294.834" cy="-1840" rx="64.9885" ry="18"/>
<text text-anchor="middle" x="294.834" y="-1836.3" font-family="Times New Roman,serif" font-size="14.00" fill="gray">PDOStatement</text>
</g>
<!-- \\System\\Libraries\\Db\\Statement&#45;&gt;PDOStatement -->
<g id="edge9" class="edge"><title>\\System\\Libraries\\Db\\Statement&#45;&gt;PDOStatement</title>
<path fill="none" stroke="black" d="M477.833,-719.637C462.44,-723.158 445.996,-729.957 436.178,-743 368.012,-833.56 438.319,-1660.35 388.178,-1762 376.533,-1785.61 354.129,-1804.81 334.306,-1818.25"/>
<polygon fill="none" stroke="black" points="332.192,-1815.45 325.718,-1823.84 336.009,-1821.32 332.192,-1815.45"/>
</g>
<!-- \\System\\Libraries\\ArrayUtil -->
<g id="node13" class="node"><title>\\System\\Libraries\\ArrayUtil</title>
<polygon fill="none" stroke="black" points="555.178,-1076 478.178,-1076 478.178,-1040 555.178,-1040 555.178,-1076"/>
<text text-anchor="middle" x="516.678" y="-1055.2" font-family="Courier,monospace" font-size="11.00">ArrayUtil</text>
</g>
<!-- \\System\\Libraries\\Db -->
<g id="node14" class="node"><title>\\System\\Libraries\\Db</title>
<polygon fill="none" stroke="black" points="543.678,-1022 489.678,-1022 489.678,-986 543.678,-986 543.678,-1022"/>
<text text-anchor="middle" x="516.678" y="-1001.2" font-family="Courier,monospace" font-size="11.00">Db</text>
</g>
<!-- \\System\\Libraries\\FileSystem -->
<g id="node15" class="node"><title>\\System\\Libraries\\FileSystem</title>
<polygon fill="none" stroke="black" points="558.678,-968 474.678,-968 474.678,-932 558.678,-932 558.678,-968"/>
<text text-anchor="middle" x="516.678" y="-947.2" font-family="Courier,monospace" font-size="11.00">FileSystem</text>
</g>
<!-- \\System\\Libraries\\Form -->
<g id="node16" class="node"><title>\\System\\Libraries\\Form</title>
<polygon fill="none" stroke="black" points="543.678,-914 489.678,-914 489.678,-878 543.678,-878 543.678,-914"/>
<text text-anchor="middle" x="516.678" y="-893.2" font-family="Courier,monospace" font-size="11.00">Form</text>
</g>
<!-- \\System\\Libraries\\Logger -->
<g id="node17" class="node"><title>\\System\\Libraries\\Logger</title>
<polygon fill="none" stroke="black" points="545.178,-860 488.178,-860 488.178,-824 545.178,-824 545.178,-860"/>
<text text-anchor="middle" x="516.678" y="-839.2" font-family="Courier,monospace" font-size="11.00">Logger</text>
</g>
<!-- \\System\\Libraries\\Profiler -->
<g id="node18" class="node"><title>\\System\\Libraries\\Profiler</title>
<polygon fill="none" stroke="black" points="552.178,-1130 481.178,-1130 481.178,-1094 552.178,-1094 552.178,-1130"/>
<text text-anchor="middle" x="516.678" y="-1109.2" font-family="Courier,monospace" font-size="11.00">Profiler</text>
</g>
<!-- Profiler -->
<g id="node34" class="node"><title>Profiler</title>
<ellipse fill="none" stroke="black" cx="294.834" cy="-1900" rx="37.8943" ry="18"/>
<text text-anchor="middle" x="294.834" y="-1896.3" font-family="Times New Roman,serif" font-size="14.00" fill="gray">Profiler</text>
</g>
<!-- \\System\\Libraries\\Profiler&#45;&gt;Profiler -->
<g id="edge10" class="edge"><title>\\System\\Libraries\\Profiler&#45;&gt;Profiler</title>
<path fill="none" stroke="black" d="M481.106,-1124.92C464.603,-1132.96 446.29,-1145.06 436.178,-1162 354.441,-1298.93 491.145,-1756.23 388.178,-1878 377.074,-1891.13 359.681,-1897.21 342.97,-1899.81"/>
<polygon fill="none" stroke="black" points="342.241,-1896.37 332.715,-1901.01 343.054,-1903.32 342.241,-1896.37"/>
</g>
<!-- \\System\\Libraries\\Url -->
<g id="node19" class="node"><title>\\System\\Libraries\\Url</title>
<polygon fill="none" stroke="black" points="543.678,-680 489.678,-680 489.678,-644 543.678,-644 543.678,-680"/>
<text text-anchor="middle" x="516.678" y="-659.2" font-family="Courier,monospace" font-size="11.00">Url</text>
</g>
<!-- \\System\\Libraries\\Xml -->
<g id="node20" class="node"><title>\\System\\Libraries\\Xml</title>
<polygon fill="none" stroke="black" points="543.678,-626 489.678,-626 489.678,-590 543.678,-590 543.678,-626"/>
<text text-anchor="middle" x="516.678" y="-605.2" font-family="Courier,monospace" font-size="11.00">Xml</text>
</g>
<!-- \\System\\Middleware\\I18n -->
<g id="node21" class="node"><title>\\System\\Middleware\\I18n</title>
<polygon fill="none" stroke="black" points="543.678,-546 489.678,-546 489.678,-510 543.678,-510 543.678,-546"/>
<text text-anchor="middle" x="516.678" y="-525.2" font-family="Courier,monospace" font-size="11.00">I18n</text>
</g>
<!-- \\System\\Middleware\\Profiler -->
<g id="node22" class="node"><title>\\System\\Middleware\\Profiler</title>
<polygon fill="none" stroke="black" points="552.178,-492 481.178,-492 481.178,-456 552.178,-456 552.178,-492"/>
<text text-anchor="middle" x="516.678" y="-471.2" font-family="Courier,monospace" font-size="11.00">Profiler</text>
</g>
<!-- \\System\\Middleware\\RemoveTrailingSlash -->
<g id="node23" class="node"><title>\\System\\Middleware\\RemoveTrailingSlash</title>
<polygon fill="none" stroke="black" points="589.178,-438 444.178,-438 444.178,-402 589.178,-402 589.178,-438"/>
<text text-anchor="middle" x="516.678" y="-417.2" font-family="Courier,monospace" font-size="11.00">RemoveTrailingSlash</text>
</g>
<!-- \\System\\App -->
<g id="node24" class="node"><title>\\System\\App</title>
<polygon fill="none" stroke="black" points="543.678,-384 489.678,-384 489.678,-348 543.678,-348 543.678,-384"/>
<text text-anchor="middle" x="516.678" y="-363.2" font-family="Courier,monospace" font-size="11.00">App</text>
</g>
<!-- \\System\\Cli -->
<g id="node25" class="node"><title>\\System\\Cli</title>
<polygon fill="none" stroke="black" points="543.678,-330 489.678,-330 489.678,-294 543.678,-294 543.678,-330"/>
<text text-anchor="middle" x="516.678" y="-309.2" font-family="Courier,monospace" font-size="11.00">Cli</text>
</g>
<!-- \\System\\Config -->
<g id="node26" class="node"><title>\\System\\Config</title>
<polygon fill="none" stroke="black" points="545.178,-276 488.178,-276 488.178,-240 545.178,-240 545.178,-276"/>
<text text-anchor="middle" x="516.678" y="-255.2" font-family="Courier,monospace" font-size="11.00">Config</text>
</g>
<!-- \\System\\Container -->
<g id="node27" class="node"><title>\\System\\Container</title>
<polygon fill="none" stroke="black" points="555.178,-222 478.178,-222 478.178,-186 555.178,-186 555.178,-222"/>
<text text-anchor="middle" x="516.678" y="-201.2" font-family="Courier,monospace" font-size="11.00">Container</text>
</g>
<!-- Container -->
<g id="node31" class="node"><title>Container</title>
<ellipse fill="none" stroke="black" cx="294.834" cy="-2008" rx="46.2923" ry="18"/>
<text text-anchor="middle" x="294.834" y="-2004.3" font-family="Times New Roman,serif" font-size="14.00" fill="gray">Container</text>
</g>
<!-- \\System\\Container&#45;&gt;Container -->
<g id="edge1" class="edge"><title>\\System\\Container&#45;&gt;Container</title>
<path fill="none" stroke="black" d="M478.126,-207.455C462.592,-210.932 445.957,-217.746 436.178,-231 322.736,-384.754 482.944,-1784.08 388.178,-1950 377.414,-1968.84 357.774,-1982.44 339.366,-1991.71"/>
<polygon fill="none" stroke="black" points="337.738,-1988.61 330.189,-1996.05 340.727,-1994.94 337.738,-1988.61"/>
</g>
<!-- ContainerInterface -->
<g id="node32" class="node"><title>ContainerInterface</title>
<ellipse fill="none" stroke="black" cx="294.834" cy="-2096" rx="77.1866" ry="18"/>
<text text-anchor="middle" x="294.834" y="-2092.3" font-family="Times New Roman,serif" font-size="14.00" fill="gray">ContainerInterface</text>
</g>
<!-- \\System\\Container&#45;&gt;ContainerInterface -->
<g id="edge2" class="edge"><title>\\System\\Container&#45;&gt;ContainerInterface</title>
<path fill="none" stroke="black" stroke-dasharray="1,5" d="M478.116,-207.448C462.58,-210.923 445.946,-217.738 436.178,-231 315.749,-394.506 503.398,-1890.78 388.178,-2058 381.711,-2067.38 372.476,-2074.46 362.32,-2079.78"/>
<polygon fill="none" stroke="black" points="360.792,-2076.63 353.205,-2084.03 363.748,-2082.98 360.792,-2076.63"/>
</g>
<!-- \\System\\Modules -->
<g id="node28" class="node"><title>\\System\\Modules</title>
<polygon fill="none" stroke="black" points="548.678,-168 484.678,-168 484.678,-132 548.678,-132 548.678,-168"/>
<text text-anchor="middle" x="516.678" y="-147.2" font-family="Courier,monospace" font-size="11.00">Modules</text>
</g>
<!-- \\System\\Router -->
<g id="node29" class="node"><title>\\System\\Router</title>
<polygon fill="none" stroke="black" points="545.178,-114 488.178,-114 488.178,-78 545.178,-78 545.178,-114"/>
<text text-anchor="middle" x="516.678" y="-93.2" font-family="Courier,monospace" font-size="11.00">Router</text>
</g>
<!-- \\System\\Views -->
<g id="node30" class="node"><title>\\System\\Views</title>
<polygon fill="none" stroke="black" points="543.678,-60 489.678,-60 489.678,-24 543.678,-24 543.678,-60"/>
<text text-anchor="middle" x="516.678" y="-39.2" font-family="Courier,monospace" font-size="11.00">Views</text>
</g>
</g>
</svg>
